<?xml version="1.0" ?><svg id="Layer_1" style="enable-background:new 0 0 100 100;" version="1.1" viewBox="0 0 100 100" xml:space="preserve" xmlns="http://www.w3.org/2000/svg" xmlns:xlink="http://www.w3.org/1999/xlink"><g><path d="M50,26c-13.2,0-24,10.8-24,24s10.8,24,24,24s24-10.8,24-24S63.2,26,50,26z"/><circle cx="77.5" cy="22.5" r="4"/><path d="M75,4H25C13.4,4,4,13.4,4,25v50c0,11.6,9.4,21,21,21h50c11.6,0,21-9.4,21-21V25C96,13.4,86.6,4,75,4z M50,76   c-14.3,0-26-11.7-26-26s11.7-26,26-26s26,11.7,26,26S64.3,76,50,76z M77.5,28.5c-3.3,0-6-2.7-6-6s2.7-6,6-6s6,2.7,6,6   S80.8,28.5,77.5,28.5z"/></g></svg>